<?xml version="1.0" standalone="no"?>
<!DOCTYPE svg PUBLIC "-//W3C//DTD SVG 20010904//EN"
 "http://www.w3.org/TR/2001/REC-SVG-20010904/DTD/svg10.dtd">
<svg version="1.0" xmlns="http://www.w3.org/2000/svg"
 width="512.000000pt" height="512.000000pt" viewBox="0 0 512.000000 512.000000"
 preserveAspectRatio="xMidYMid meet">
<metadata>
Created by potrace 1.16, written by Peter Selinger 2001-2019
</metadata>
<g transform="translate(0.000000,512.000000) scale(0.100000,-0.100000)"
fill="#000000" stroke="none">
<path d="M2458 4908 c15 -6 16 -7 0 -7 -9 -1 -25 -4 -35 -7 -15 -5 -16 -4 -3
6 26 20 -30 1 -76 -26 -46 -27 -144 -126 -163 -164 l-12 -25 18 25 c10 14 42
50 72 80 l54 55 -52 -57 c-29 -32 -66 -88 -84 -125 -28 -61 -31 -79 -35 -185
l-4 -118 123 -2 124 -2 -120 -6 -120 -6 118 -2 117 -2 2 -82 2 -83 6 95 6 95
2 -97 2 -98 155 0 155 0 2 98 2 97 6 -95 6 -95 2 83 2 82 118 2 117 2 -120 6
-120 6 123 2 122 2 0 85 c0 154 -33 245 -123 344 l-51 56 52 -49 c28 -28 64
-73 79 -102 15 -29 29 -51 31 -49 2 2 -9 27 -24 55 -33 61 -149 174 -171 166
-8 -3 -11 -1 -8 4 4 6 -9 17 -29 25 -41 18 -57 19 -36 4 12 -9 12 -10 -3 -5
-10 3 -26 6 -35 7 -16 0 -15 1 0 7 10 4 -34 7 -97 7 -63 0 -107 -3 -97 -7z"/>
<path d="M1649 4326 c-2 -3 -41 -7 -86 -9 -60 -3 -88 -10 -110 -25 -39 -27
-66 -59 -69 -80 -1 -9 -10 -37 -19 -62 -12 -33 -15 -60 -10 -100 3 -30 7 -65
8 -77 1 -11 5 -19 8 -18 6 5 54 -86 51 -97 -1 -5 94 40 212 99 118 59 213 110
210 114 -2 4 2 9 8 12 10 3 5 20 -15 61 -15 32 -25 61 -23 65 7 11 -72 85
-111 105 -33 16 -46 19 -54 12z"/>
<path d="M2270 4040 c32 -5 30 -6 -25 -14 -79 -10 -264 -58 -345 -89 -98 -38
-109 -41 -80 -23 53 32 0 13 -108 -39 -76 -36 -111 -59 -106 -66 4 -8 3 -9 -4
-5 -16 10 -54 -12 -46 -26 4 -7 3 -8 -4 -4 -14 9 -55 -12 -47 -24 3 -5 0 -12
-6 -16 -8 -5 -9 -3 -4 6 5 8 3 11 -6 8 -8 -3 -14 -10 -14 -16 0 -5 -4 -14 -9
-19 -5 -5 -6 -3 -2 5 11 18 -9 15 -25 -5 -12 -14 -12 -16 0 -8 10 5 12 4 7 -4
-4 -6 -12 -9 -17 -6 -5 4 -37 -15 -71 -41 -82 -62 -321 -302 -313 -314 5 -9
-71 -120 -82 -120 -3 0 -1 6 4 13 5 6 25 32 43 57 19 25 28 40 19 33 -26 -20
-76 -97 -72 -110 2 -6 -1 -15 -8 -19 -8 -5 -9 -3 -4 6 5 8 4 11 -3 6 -6 -4 -9
-13 -6 -20 3 -8 0 -17 -7 -22 -8 -5 -10 -3 -4 6 5 9 4 11 -4 6 -6 -4 -9 -11
-6 -16 3 -5 -17 -48 -45 -96 -94 -165 -163 -352 -212 -578 -20 -89 -22 -131
-23 -351 0 -222 3 -263 23 -364 30 -149 90 -329 152 -459 27 -57 47 -109 43
-115 -3 -6 -1 -7 5 -3 7 4 18 -7 28 -26 9 -18 34 -59 56 -91 21 -31 37 -61 34
-66 -3 -5 2 -15 12 -22 16 -13 16 -13 2 6 -14 19 -14 19 3 6 10 -8 16 -19 14
-25 -5 -15 41 -74 143 -180 110 -114 273 -252 245 -206 -10 16 1 11 16 -7 10
-11 10 -14 2 -9 -7 4 -13 5 -13 1 0 -11 188 -128 282 -176 105 -53 149 -67 58
-19 -30 16 -52 29 -48 30 15 1 117 -54 113 -61 -5 -8 75 -42 82 -35 2 2 -12 9
-32 16 -20 7 -35 14 -33 16 3 2 47 -12 99 -30 112 -40 286 -80 422 -97 123
-15 432 -7 542 15 124 23 155 28 125 17 -20 -7 -21 -9 -5 -9 11 0 38 6 60 13
l40 14 -35 -5 c-19 -2 17 13 80 35 156 53 161 54 115 31 -26 -13 -31 -18 -15
-14 42 9 335 158 335 171 0 6 4 15 9 20 5 5 6 3 2 -4 -11 -19 0 -16 44 13 22
15 37 30 35 35 -3 4 0 11 6 15 8 4 9 3 5 -4 -11 -18 10 -14 25 5 12 15 12 16
-1 8 -13 -8 -13 -7 -1 8 15 18 26 23 16 7 -12 -19 12 -10 31 12 19 22 19 23
-1 8 -18 -14 -19 -14 -7 2 8 9 19 15 26 12 28 -11 345 318 338 351 -1 7 6 19
15 26 17 13 17 13 3 -6 -14 -19 -14 -19 2 -6 10 7 15 17 12 22 -3 5 13 35 34
66 22 32 47 73 56 91 10 19 21 30 28 26 6 -4 8 -3 5 3 -4 6 16 58 43 115 62
130 122 310 152 459 20 101 23 142 23 364 -1 220 -3 262 -23 351 -49 226 -118
413 -212 578 -28 48 -48 91 -45 96 3 5 0 12 -6 16 -8 5 -9 3 -4 -6 6 -9 4 -11
-4 -6 -7 5 -10 14 -7 22 3 7 0 16 -6 20 -7 5 -8 2 -3 -6 5 -9 4 -11 -4 -6 -7
4 -10 13 -8 19 4 13 -46 90 -72 110 -9 7 0 -8 19 -33 18 -25 38 -51 43 -57 5
-7 7 -13 4 -13 -11 0 -87 111 -82 120 8 12 -231 252 -313 314 -34 26 -66 45
-71 41 -5 -3 -13 0 -17 6 -5 8 -3 9 7 4 12 -8 12 -6 0 8 -16 20 -36 23 -25 5
4 -8 3 -10 -2 -5 -5 5 -9 14 -9 20 0 5 -6 12 -14 15 -9 3 -11 0 -6 -8 5 -9 4
-11 -4 -6 -6 4 -9 11 -6 16 8 12 -33 33 -47 24 -7 -4 -8 -3 -4 4 8 14 -30 36
-46 26 -7 -4 -8 -3 -4 4 4 7 -26 28 -83 57 -50 25 -94 45 -98 45 -5 -1 27 -19
70 -41 42 -21 77 -41 77 -44 0 -3 -33 11 -72 31 -151 76 -383 150 -533 170
-55 8 -57 9 -25 14 19 3 -111 6 -290 6 -179 0 -309 -3 -290 -6z m458 -281
c185 -20 356 -66 525 -142 37 -16 66 -32 63 -34 -2 -2 -22 5 -45 16 -22 12
-44 21 -48 21 -4 -1 27 -19 70 -41 43 -22 83 -37 89 -33 6 4 8 3 5 -3 -4 -6 9
-20 29 -32 41 -24 48 -26 38 -8 -4 7 -3 9 2 4 5 -5 9 -14 9 -19 0 -6 6 -13 14
-16 9 -3 11 0 6 8 -5 9 -4 11 4 6 6 -4 9 -11 6 -16 -6 -10 43 -43 54 -36 5 3
15 -2 22 -12 13 -16 12 -16 -6 -2 -20 15 -20 14 -1 -8 19 -22 43 -31 31 -12
-12 19 2 10 26 -17 l24 -28 -25 20 -25 20 24 -28 c23 -26 49 -38 36 -17 -14
22 4 7 75 -66 41 -42 69 -74 63 -70 -25 14 -13 -11 19 -40 l33 -29 -25 30 -25
30 27 -24 c15 -13 25 -28 23 -35 -3 -6 9 -27 26 -46 l31 -35 -28 40 c-15 22
-21 34 -12 27 28 -22 123 -173 175 -277 190 -378 224 -814 96 -1220 -31 -98
-83 -216 -92 -210 -4 2 -7 -6 -7 -18 1 -12 -4 -21 -11 -20 -7 2 -10 -3 -7 -10
6 -17 -86 -168 -163 -264 -56 -71 -215 -235 -199 -205 13 22 -10 12 -35 -15
-22 -25 -22 -26 -1 -9 31 27 28 15 -5 -15 -14 -13 -23 -18 -19 -11 12 21 -10
13 -30 -10 -19 -22 -19 -23 1 -8 18 14 19 14 6 -2 -7 -10 -17 -15 -22 -12 -11
7 -60 -26 -54 -36 3 -5 0 -12 -6 -16 -8 -5 -9 -3 -4 6 5 8 3 11 -6 8 -8 -3
-14 -10 -14 -15 0 -6 -4 -15 -9 -20 -5 -5 -6 -3 -2 5 11 18 1 15 -52 -18 -27
-16 -91 -49 -143 -73 -157 -73 -147 -68 -121 -61 12 3 22 3 22 0 0 -10 -188
-65 -300 -87 -149 -30 -433 -33 -577 -6 -136 26 -383 101 -370 113 2 2 21 -3
42 -11 20 -9 39 -14 41 -12 3 2 -17 12 -43 22 -59 22 -193 89 -245 121 -42 27
-52 30 -42 12 4 -8 3 -10 -2 -5 -5 5 -9 14 -9 20 0 5 -6 12 -14 15 -9 3 -11 0
-6 -9 5 -8 4 -11 -1 -6 -5 5 -9 12 -9 17 0 8 -91 80 -101 80 -3 0 -2 -4 1 -10
12 -19 -2 -10 -26 17 l-24 28 25 -20 25 -20 -24 28 c-25 27 -48 37 -35 15 16
-30 -143 134 -199 205 -77 96 -169 247 -163 264 3 7 0 12 -7 10 -7 -1 -12 8
-11 20 0 12 -3 20 -7 18 -9 -6 -61 112 -92 210 -155 491 -70 1027 229 1445 56
78 269 311 249 273 -11 -23 11 -14 36 14 22 25 22 26 2 9 -32 -27 -29 -15 4
15 14 13 23 18 19 12 -12 -22 10 -14 30 9 19 22 19 23 -1 8 -18 -14 -19 -14
-6 2 7 10 17 15 22 12 11 -7 60 26 54 36 -3 5 0 12 6 16 8 5 9 3 4 -6 -5 -8
-3 -11 6 -8 8 3 14 10 14 16 0 5 4 14 9 19 5 5 6 2 1 -6 -5 -9 -3 -12 6 -9 8
3 13 11 11 17 -1 7 2 10 8 6 14 -9 52 14 44 27 -4 7 -3 8 4 4 6 -4 46 11 89
33 43 22 75 40 70 41 -4 0 -39 -16 -77 -35 -39 -19 -70 -33 -70 -30 0 16 309
146 342 144 7 0 -3 -7 -22 -14 -44 -17 -30 -19 22 -3 23 7 34 14 27 19 -18 11
160 48 301 62 77 8 216 6 308 -4z"/>
<path d="M2836 3538 c-4 -15 -211 -867 -265 -1090 l-36 -147 -30 2 c-20 1 -29
-2 -27 -11 1 -8 -2 -11 -9 -7 -11 8 -73 -47 -91 -80 -6 -11 9 1 33 26 24 25
32 31 18 15 -77 -90 -82 -201 -14 -293 26 -35 27 -36 4 -18 l-24 20 24 -28
c24 -27 49 -38 35 -15 -4 7 -3 8 5 4 6 -4 9 -12 5 -17 -10 -17 63 -39 123 -38
l58 2 -73 7 c-40 3 -78 12 -85 19 -10 10 -6 10 16 2 41 -16 133 -13 170 4 29
14 30 14 13 0 -11 -8 -24 -15 -30 -15 -5 0 -7 -3 -4 -6 11 -10 64 24 101 65
48 54 48 65 0 14 -21 -21 -28 -28 -16 -14 32 38 63 111 62 151 0 19 -6 53 -14
74 -8 22 -12 43 -10 46 2 4 -12 22 -31 41 -20 19 -40 43 -44 54 -8 18 -9 18
-9 -4 -1 -13 -4 -22 -7 -19 -3 3 8 102 25 219 17 118 55 396 86 619 31 223 58
407 61 409 2 2 4 -9 5 -25 0 -16 3 -23 6 -16 7 18 -5 62 -18 62 -5 0 -11 -6
-13 -12z"/>
</g>
</svg>
