<?xml version="1.0" standalone="no"?>
<!DOCTYPE svg PUBLIC "-//W3C//DTD SVG 20010904//EN"
 "http://www.w3.org/TR/2001/REC-SVG-20010904/DTD/svg10.dtd">
<svg version="1.0" xmlns="http://www.w3.org/2000/svg"
 width="512.000000pt" height="512.000000pt" viewBox="0 0 512.000000 512.000000"
 preserveAspectRatio="xMidYMid meet">
<metadata>
Created by potrace 1.16, written by Peter Selinger 2001-2019
</metadata>
<g transform="translate(0.000000,512.000000) scale(0.100000,-0.100000)"
fill="#000000" stroke="none">
<path d="M3074 4722 c-12 -2 -153 -142 -329 -327 -169 -179 -312 -325 -316
-325 -5 0 -167 144 -360 320 -273 249 -357 320 -377 320 -22 0 -1640 -840
-1679 -872 -7 -6 -13 -24 -13 -40 0 -26 46 -77 340 -374 l340 -344 0 -1125 0
-1125 23 -13 c23 -15 2030 -419 2080 -420 16 0 33 6 38 14 5 8 9 475 9 1095 0
853 -3 1084 -12 1092 -7 5 -80 23 -161 40 -81 16 -150 31 -152 34 -3 3 -4 279
-3 614 l3 610 935 -227 c514 -124 940 -228 946 -230 7 -2 -302 -182 -685 -399
-383 -217 -706 -405 -718 -417 l-23 -22 0 -1053 c0 -937 2 -1056 16 -1076 8
-12 24 -22 34 -22 23 0 1510 816 1527 838 10 12 13 255 13 1135 l0 1118 285
337 c292 344 309 369 271 401 -10 9 -1412 320 -1971 438 -22 5 -49 7 -61 5z
m-704 -1442 c0 -512 -2 -580 -15 -580 -13 0 -1475 286 -1498 293 -9 3 1491
866 1506 867 4 0 7 -261 7 -580z m1610 -981 c78 -66 144 -127 147 -136 10 -25
-9 -45 -75 -83 l-62 -35 0 -245 c0 -202 -3 -249 -15 -267 -16 -23 -243 -153
-267 -153 -35 0 -38 20 -38 252 0 125 -3 228 -6 228 -3 0 -25 -12 -49 -26 -48
-28 -80 -26 -90 5 -3 12 43 114 131 287 126 248 154 294 176 294 4 0 71 -54
148 -121z"/>
</g>
</svg>
