<?xml version="1.0" standalone="no"?>
<!DOCTYPE svg PUBLIC "-//W3C//DTD SVG 20010904//EN"
 "http://www.w3.org/TR/2001/REC-SVG-20010904/DTD/svg10.dtd">
<svg version="1.0" xmlns="http://www.w3.org/2000/svg"
 width="512.000000pt" height="512.000000pt" viewBox="0 0 512.000000 512.000000"
 preserveAspectRatio="xMidYMid meet">
<metadata>
Created by potrace 1.16, written by Peter Selinger 2001-2019
</metadata>
<g transform="translate(0.000000,512.000000) scale(0.100000,-0.100000)"
fill="#000000" stroke="none">
<path d="M1456 3995 c-588 -167 -1074 -309 -1081 -317 -7 -7 -94 -122 -194
-255 -178 -239 -199 -276 -168 -301 6 -5 174 -65 372 -132 1469 -498 1471
-499 1493 -487 12 7 132 149 268 317 135 168 250 306 255 308 4 2 42 -6 83
-17 l74 -20 72 20 c40 11 79 19 86 17 6 -2 125 -142 263 -313 138 -170 259
-313 269 -316 16 -6 1810 594 1852 619 41 25 26 54 -169 315 -156 209 -197
257 -224 266 -160 51 -2134 601 -2155 600 -15 -1 -508 -138 -1096 -304z m1871
-91 c409 -115 737 -211 730 -215 -6 -3 -346 -97 -754 -209 l-741 -203 -744
203 c-408 111 -748 205 -755 209 -14 7 1484 432 1507 427 8 -2 349 -97 757
-212z"/>
<path d="M2374 2813 c-13 -16 -115 -140 -226 -278 -127 -156 -211 -251 -223
-253 -11 -1 -337 106 -724 238 -387 132 -711 240 -720 240 -41 0 -41 -4 -41
-571 0 -442 3 -549 13 -558 24 -19 1949 -811 1973 -811 13 0 28 9 34 19 7 13
10 341 10 991 0 650 -3 978 -10 991 -16 28 -57 24 -86 -8z"/>
<path d="M2660 2821 c-7 -13 -10 -341 -10 -991 0 -650 3 -978 10 -991 6 -10
21 -19 33 -19 23 0 1952 793 1975 812 9 8 12 128 10 561 -3 514 -4 551 -21
561 -14 9 -103 -18 -455 -137 -240 -82 -564 -192 -720 -245 -219 -74 -287 -94
-300 -85 -9 5 -106 120 -215 254 -108 134 -208 256 -221 272 -29 32 -70 36
-86 8z"/>
</g>
</svg>
