<?xml version="1.0" encoding="utf-8"?>
<!-- Generator: Adobe Illustrator 27.9.0, SVG Export Plug-In . SVG Version: 6.00 Build 0)  -->
<svg version="1.1" id="Capa_1" xmlns="http://www.w3.org/2000/svg" xmlns:xlink="http://www.w3.org/1999/xlink" x="0px" y="0px"
	 viewBox="0 0 300 74" style="enable-background:new 0 0 300 74;" xml:space="preserve">
<style type="text/css">
	.st0{fill:#144383;}
</style>
<g id="LOGO_BOSTON_00000183960352930226558430000004741676952442779039_">
	<g>
		<path class="st0" d="M3.9,70.5c-0.8,0-1.5-0.3-2.1-0.9c-0.6-0.6-0.9-1.2-0.9-2c0-0.8,0-1.4,0-1.8c0-0.4,0-0.8,0-1.2
			c0-0.4,0-0.6,0-0.6c0-0.8,0.3-1.5,0.9-2.1C2.3,61.3,3,61,3.9,61l6.1,0v2.2H3.9c0,0-0.1,0-0.1,0c0,0-0.1,0-0.1,0
			c-0.1,0-0.3,0.1-0.4,0.3c-0.1,0.1-0.2,0.3-0.2,0.4v3.6c0,0.2,0.1,0.4,0.2,0.5c0.2,0.1,0.3,0.2,0.5,0.2h6.1v2.2H3.9z"/>
		<path class="st0" d="M16.4,68.1v2.3h-2.3v-2.9l3.1-5.1c0.3-0.4,0.6-0.8,1.1-1.1c0.4-0.3,1-0.4,1.5-0.4c0.6,0,1.1,0.1,1.5,0.3
			c0.4,0.2,0.8,0.6,1.1,1.1l3,5.1v2.9h-2.3v-2.4l-0.8-1.3h-5.3L16.4,68.1z M20.5,63.5c-0.1-0.2-0.2-0.3-0.3-0.3
			c-0.1,0-0.2-0.1-0.4-0.1c-0.1,0-0.2,0-0.3,0c-0.1,0-0.2,0.1-0.3,0.2c0,0,0,0,0,0.1c0,0,0,0,0,0.1l-0.7,1.1h2.6L20.5,63.5z"/>
		<path class="st0" d="M29.7,70.5V61h2.3v7.3h6.8v2.2H29.7z"/>
		<path class="st0" d="M42.9,70.5V61h2.3v9.4H42.9z"/>
		<path class="st0" d="M49.4,61H57c0.8,0,1.6,0.3,2.1,0.9c0.6,0.6,0.9,1.3,0.9,2.1c0,0.1,0,0.3,0,0.6c0,0.4,0,0.7,0,1.2
			c0,0.5,0,1.1,0,1.8c0,0.8-0.3,1.5-0.9,2c-0.6,0.6-1.3,0.9-2.1,0.9h-7.6V61z M57,68.3c0.2,0,0.4-0.1,0.5-0.2
			c0.1-0.1,0.2-0.3,0.2-0.5v-3.6c0-0.2-0.1-0.3-0.2-0.4c-0.1-0.1-0.3-0.2-0.4-0.3c0,0,0,0-0.1,0c0,0,0,0-0.1,0h-5.3v5.1H57z"/>
		<path class="st0" d="M66.4,68.1v2.3h-2.3v-2.9l3.1-5.1c0.3-0.4,0.6-0.8,1.1-1.1c0.4-0.3,1-0.4,1.5-0.4c0.6,0,1.1,0.1,1.5,0.3
			c0.4,0.2,0.8,0.6,1.1,1.1l3,5.1v2.9h-2.3v-2.4l-0.8-1.3h-5.3L66.4,68.1z M70.5,63.5c-0.1-0.2-0.2-0.3-0.3-0.3
			c-0.1,0-0.2-0.1-0.4-0.1c-0.1,0-0.2,0-0.3,0c-0.1,0-0.2,0.1-0.3,0.2c0,0,0,0,0,0.1c0,0,0,0,0,0.1l-0.7,1.1h2.6L70.5,63.5z"/>
		<path class="st0" d="M79.7,61h7.6c0.8,0,1.6,0.3,2.1,0.9c0.6,0.6,0.9,1.3,0.9,2.1c0,0.1,0,0.3,0,0.6c0,0.4,0,0.7,0,1.2
			c0,0.5,0,1.1,0,1.8c0,0.8-0.3,1.5-0.9,2c-0.6,0.6-1.3,0.9-2.1,0.9h-7.6V61z M87.3,68.3c0.2,0,0.4-0.1,0.5-0.2
			c0.1-0.1,0.2-0.3,0.2-0.5v-3.6c0-0.2-0.1-0.3-0.2-0.4c-0.1-0.1-0.3-0.2-0.4-0.3c0,0,0,0-0.1,0c0,0,0,0-0.1,0H82v5.1H87.3z"/>
		<path class="st0" d="M112.7,68.3v2.2h-9.1V61h9v2.2h-6.7v1.5h6.4v2.2h-6.4v1.5H112.7z"/>
		<path class="st0" d="M116.8,61h7.6c0.8,0,1.6,0.3,2.1,0.9c0.6,0.6,0.9,1.3,0.9,2.1v6.5h-2.3v-6.5c0-0.2-0.1-0.3-0.2-0.5
			c-0.1-0.1-0.3-0.2-0.5-0.2c0,0,0,0,0,0c0,0,0,0,0,0h-5.3v7.3h-2.3V61z"/>
		<path class="st0" d="M143.7,70.5c-0.8,0-1.5-0.3-2.1-0.9c-0.6-0.6-0.9-1.2-0.9-2c0-0.8,0-1.4,0-1.8c0-0.4,0-0.8,0-1.2
			c0-0.4,0-0.6,0-0.6c0-0.8,0.3-1.5,0.9-2.1c0.6-0.6,1.3-0.9,2.1-0.9l6.1,0v2.2h-6.1c0,0-0.1,0-0.1,0c0,0-0.1,0-0.1,0
			c-0.1,0-0.3,0.1-0.4,0.3c-0.1,0.1-0.2,0.3-0.2,0.4v3.6c0,0.2,0.1,0.4,0.2,0.5c0.2,0.1,0.3,0.2,0.5,0.2h6.1v2.2H143.7z"/>
		<path class="st0" d="M154.9,69.6c-0.6-0.6-0.9-1.2-0.9-2c0-0.8,0-1.4,0-1.8c0-0.4,0-0.8,0-1.2c0-0.4,0-0.6,0-0.6
			c0-0.8,0.3-1.5,0.9-2.1c0.6-0.6,1.3-0.9,2.1-0.9l5.3,0c0.8,0,1.6,0.3,2.1,0.9c0.6,0.6,0.9,1.3,0.9,2.1c0,0.1,0,0.3,0,0.6
			c0,0.4,0,0.7,0,1.2c0,0.5,0,1.1,0,1.8c0,0.8-0.3,1.5-0.9,2c-0.6,0.6-1.3,0.9-2.1,0.9H157C156.2,70.5,155.5,70.2,154.9,69.6z
			 M162.9,68.1c0.1-0.1,0.2-0.3,0.2-0.5v-3.6c0-0.2-0.1-0.3-0.2-0.4c-0.1-0.1-0.3-0.2-0.4-0.3c0,0,0,0-0.1,0c0,0-0.1,0-0.1,0H157
			c0,0-0.1,0-0.2,0c-0.1,0-0.1,0.1-0.2,0.1c-0.1,0.1-0.2,0.1-0.3,0.2c-0.1,0.1-0.1,0.2-0.1,0.3v3.6c0,0.2,0.1,0.4,0.2,0.5
			c0.1,0.1,0.3,0.2,0.5,0.2c0,0,0,0,0,0c0,0,0,0,0,0h5.3C162.5,68.3,162.7,68.2,162.9,68.1z"/>
		<path class="st0" d="M169.5,61h7.6c0.8,0,1.6,0.3,2.1,0.9c0.6,0.6,0.9,1.3,0.9,2.1v6.5h-2.3v-6.5c0-0.2-0.1-0.3-0.2-0.5
			c-0.1-0.1-0.3-0.2-0.5-0.2c0,0,0,0,0,0c0,0,0,0,0,0h-5.3v7.3h-2.3V61z"/>
		<path class="st0" d="M184.3,70.5V61h9v2.2h-6.7v1.5h6.4v2.2h-6.4v3.6H184.3z"/>
		<path class="st0" d="M206.7,68.3v2.2h-9.1V61h9v2.2h-6.7v1.5h6.4v2.2h-6.4v1.5H206.7z"/>
		<path class="st0" d="M213.9,70.5c-0.8,0-1.5-0.3-2.1-0.9c-0.6-0.6-0.9-1.2-0.9-2c0-0.8,0-1.4,0-1.8c0-0.4,0-0.8,0-1.2
			c0-0.4,0-0.6,0-0.6c0-0.8,0.3-1.5,0.9-2.1c0.6-0.6,1.3-0.9,2.1-0.9l6.1,0v2.2h-6.1c0,0-0.1,0-0.1,0c0,0-0.1,0-0.1,0
			c-0.1,0-0.3,0.1-0.4,0.3c-0.1,0.1-0.2,0.3-0.2,0.4v3.6c0,0.2,0.1,0.4,0.2,0.5c0.2,0.1,0.3,0.2,0.5,0.2h6.1v2.2H213.9z"/>
		<path class="st0" d="M227.2,70.5c-0.8,0-1.5-0.3-2.1-0.9c-0.6-0.6-0.9-1.2-0.9-2c0-0.8,0-1.4,0-1.8c0-0.4,0-0.8,0-1.2
			c0-0.4,0-0.6,0-0.6c0-0.8,0.3-1.5,0.9-2.1c0.6-0.6,1.3-0.9,2.1-0.9l6.1,0v2.2h-6.1c0,0-0.1,0-0.1,0c0,0-0.1,0-0.1,0
			c-0.1,0-0.3,0.1-0.4,0.3c-0.1,0.1-0.2,0.3-0.2,0.4v3.6c0,0.2,0.1,0.4,0.2,0.5c0.2,0.1,0.3,0.2,0.5,0.2h6.1v2.2H227.2z"/>
		<path class="st0" d="M237.4,70.5V61h2.3v9.4H237.4z"/>
		<path class="st0" d="M244.8,69.6c-0.6-0.6-0.9-1.2-0.9-2c0-0.8,0-1.4,0-1.8c0-0.4,0-0.8,0-1.2c0-0.4,0-0.6,0-0.6
			c0-0.8,0.3-1.5,0.9-2.1c0.6-0.6,1.3-0.9,2.1-0.9l5.3,0c0.8,0,1.6,0.3,2.1,0.9c0.6,0.6,0.9,1.3,0.9,2.1c0,0.1,0,0.3,0,0.6
			c0,0.4,0,0.7,0,1.2c0,0.5,0,1.1,0,1.8c0,0.8-0.3,1.5-0.9,2c-0.6,0.6-1.3,0.9-2.1,0.9h-5.3C246.1,70.5,245.4,70.2,244.8,69.6z
			 M252.7,68.1c0.1-0.1,0.2-0.3,0.2-0.5v-3.6c0-0.2-0.1-0.3-0.2-0.4c-0.1-0.1-0.3-0.2-0.4-0.3c0,0,0,0-0.1,0c0,0,0,0-0.1,0h-5.3
			c0,0-0.1,0-0.2,0c-0.1,0-0.1,0.1-0.2,0.1c-0.1,0.1-0.2,0.1-0.3,0.2c-0.1,0.1-0.1,0.2-0.1,0.3v3.6c0,0.2,0.1,0.4,0.2,0.5
			c0.1,0.1,0.3,0.2,0.5,0.2c0,0,0,0,0,0c0,0,0,0,0,0h5.3C252.4,68.3,252.6,68.2,252.7,68.1z"/>
		<path class="st0" d="M259.4,61h7.6c0.8,0,1.6,0.3,2.1,0.9c0.6,0.6,0.9,1.3,0.9,2.1v6.5h-2.3v-6.5c0-0.2-0.1-0.3-0.2-0.5
			c-0.1-0.1-0.3-0.2-0.5-0.2c0,0,0,0,0,0c0,0,0,0,0,0h-5.3v7.3h-2.3V61z"/>
		<path class="st0" d="M283.3,68.3v2.2h-9.1V61h9v2.2h-6.7v1.5h6.4v2.2h-6.4v1.5H283.3z"/>
		<path class="st0" d="M292.7,66.8c-0.4,0-0.8,0-1.2,0c-0.4,0-0.7,0-1,0c-0.8,0-1.5-0.3-2.1-0.9c-0.6-0.6-0.9-1.3-0.9-2.1
			c0-0.8,0.3-1.5,0.9-2.1c0.6-0.6,1.3-0.9,2.1-0.9l8.3,0v2.2h-8.3c-0.2,0-0.4,0.1-0.5,0.2c-0.2,0.1-0.2,0.3-0.2,0.5
			c0,0.2,0.1,0.4,0.2,0.5c0.2,0.1,0.3,0.2,0.5,0.2c1.1,0,2,0,2.6,0c0.6,0,1.2,0,1.7,0c0.5,0,0.8,0,0.9,0c0.8,0,1.6,0.3,2.1,0.9
			c0.6,0.6,0.9,1.3,0.9,2.1c0,0.8-0.3,1.5-0.9,2c-0.6,0.6-1.3,0.8-2.1,0.8h-8.3v-2.2h8.3c0.2,0,0.4-0.1,0.5-0.2
			c0.1-0.1,0.2-0.3,0.2-0.5c0-0.2-0.1-0.4-0.2-0.5c-0.1-0.1-0.3-0.2-0.5-0.2C294.5,66.8,293.5,66.8,292.7,66.8z"/>
	</g>
	<g>
		<g>
			<path class="st0" d="M0.5,8.9L5.7,9c0,0,7.3,0,11.5,0c3.6,0,7,0,10.2,0c3.2,0,5.2,0,6.1,0c3.7,0,6.9,1.3,9.6,4
				c2.6,2.7,3.9,5.9,3.9,9.8c0,1.6-0.2,3-0.7,4.4c-0.5,1.4-1.2,2.7-2.1,3.9c1,1.2,1.9,2.6,2.5,4.1c0.7,1.5,1,3.1,1,4.8
				c0,3.8-1.3,7-4,9.7c-2.6,2.7-5.8,4-9.6,4c-0.9,0-3,0-6.2,0c-3.2,0-6.7,0-10.5,0c-4.3,0-10,0-17.1,0V8.9z M37.6,39.9
				c0-0.9-0.3-1.7-1-2.4c-0.7-0.7-1.5-1-2.4-1H10.6l0,6.8h23.6c0.9,0,1.7-0.3,2.4-1C37.3,41.7,37.6,40.9,37.6,39.9L37.6,39.9z
				 M10.6,19.2v6.9h23.2c0.9,0,1.7-0.3,2.4-1c0.7-0.7,1-1.5,1-2.4c0-1-0.3-1.8-1-2.5c-0.7-0.7-1.5-1-2.4-1H10.6z"/>
			<path class="st0" d="M54.5,49.7C52,47,50.8,43.7,50.8,40c0-3.6,0-6.5,0-8.7c0-2,0-3.8,0-5.5c0-1.7,0-2.7,0-3
				c0-3.8,1.2-7.1,3.7-9.8c2.5-2.7,5.4-4,8.9-4l22.1-0.1c3.5,0,6.5,1.4,8.9,4.1c2.5,2.7,3.7,5.9,3.7,9.8c0,0.3,0,1.3,0,3
				c0,1.7,0,3.5,0,5.5c0,2.2,0,5.1,0,8.7c0,3.8-1.2,7-3.7,9.7c-2.5,2.7-5.4,4-8.9,4H63.4C59.9,53.7,56.9,52.3,54.5,49.7z M87,42.4
				c0.6-0.7,0.9-1.5,0.9-2.4V22.7c0-0.8-0.3-1.5-0.8-2.1c-0.5-0.6-1.1-1-1.8-1.2c-0.1,0-0.2,0-0.3,0c-0.1,0-0.2,0-0.3,0H64
				c-0.2,0-0.4,0.1-0.6,0.2c-0.3,0.1-0.5,0.3-0.8,0.4c-0.5,0.3-0.9,0.7-1.2,1.2c-0.4,0.5-0.5,1.1-0.5,1.6v17.1
				c0,0.9,0.3,1.7,0.9,2.3c0.6,0.6,1.2,1,2,1.2c0,0,0.1,0,0.2,0c0.1,0,0.1,0,0.2,0h20.7C85.6,43.4,86.4,43,87,42.4z"/>
			<path class="st0" d="M123.3,36.5c-1.7,0-3.3,0-4.9,0c-1.6,0-3,0-4.2,0c-3.4,0-6.4-1.4-8.9-4.1c-2.5-2.7-3.7-5.9-3.7-9.7
				c0-3.8,1.2-7.1,3.7-9.8c2.5-2.7,5.4-4,8.9-4l34.6-0.1v10.4h-34c-0.8,0-1.6,0.4-2.2,1.1c-0.6,0.7-0.9,1.5-0.9,2.4
				c0,0.9,0.3,1.7,1,2.4c0.6,0.7,1.4,1,2.2,1c4.6,0,7.6,0,10.3,0c2.5,0,4.8,0,6.9,0c2.1,0,3.4,0,3.9,0c3.5,0,6.5,1.4,8.9,4.1
				c2.5,2.7,3.7,6,3.7,9.8c0,3.8-1.2,7-3.7,9.7c-2.5,2.7-5.4,4-8.9,4h-34.4V43.4h33.7c0.9,0,1.6-0.3,2.2-1c0.6-0.7,0.9-1.5,0.9-2.4
				c0-1-0.3-1.8-0.9-2.5c-0.6-0.7-1.4-1-2.2-1C129.9,36.5,126.5,36.5,123.3,36.5z"/>
			<path class="st0" d="M152.1,19.2V8.9h47.3v10.3h-18.6v34.5h-10.1V19.2H152.1z"/>
			<path class="st0" d="M205.1,49.7c-2.5-2.7-3.7-5.9-3.7-9.7c0-3.6,0-6.5,0-8.7c0-2,0-3.8,0-5.5c0-1.7,0-2.7,0-3
				c0-3.8,1.2-7.1,3.7-9.8c2.5-2.7,5.4-4,8.9-4L236,8.8c3.5,0,6.5,1.4,8.9,4.1c2.5,2.7,3.7,5.9,3.7,9.8c0,0.3,0,1.3,0,3
				c0,1.7,0,3.5,0,5.5c0,2.2,0,5.1,0,8.7c0,3.8-1.2,7-3.7,9.7c-2.5,2.7-5.4,4-8.9,4H214C210.5,53.7,207.6,52.3,205.1,49.7z
				 M237.6,42.4c0.6-0.7,0.9-1.5,0.9-2.4V22.7c0-0.8-0.3-1.5-0.8-2.1c-0.5-0.6-1.1-1-1.8-1.2c-0.1,0-0.2,0-0.3,0c-0.1,0-0.2,0-0.3,0
				h-20.7c-0.2,0-0.4,0.1-0.6,0.2c-0.3,0.1-0.5,0.3-0.8,0.4c-0.5,0.3-0.9,0.7-1.2,1.2c-0.4,0.5-0.5,1.1-0.5,1.6v17.1
				c0,0.9,0.3,1.7,0.9,2.3c0.6,0.6,1.2,1,2,1.2c0,0,0.1,0,0.2,0c0.1,0,0.1,0,0.2,0h20.7C236.2,43.4,237,43,237.6,42.4z"/>
			<path class="st0" d="M252.3,8.9H286c3.7,0,6.9,1.4,9.6,4.1c2.6,2.7,4,5.9,4,9.8v30.9h-10.1v-31c0-0.9-0.3-1.6-0.9-2.3
				c-0.6-0.6-1.3-1-2.1-1.1c0,0-0.1,0-0.2,0c-0.1,0-0.1,0-0.2,0h-23.6v34.4h-10.1V8.9z"/>
		</g>
	</g>
	<g>
		<path class="st0" d="M294.8,7.3h-0.7V4h1.3c0.3,0,0.5,0,0.8,0.2c0.2,0.2,0.4,0.5,0.4,0.8c0,0.4-0.2,0.7-0.5,0.9l0.6,1.5h-0.8
			L295.3,6h-0.5V7.3L294.8,7.3z M294.8,5.4h0.4c0.1,0,0.3,0,0.4-0.1c0.1-0.1,0.2-0.2,0.2-0.4c0-0.1-0.1-0.3-0.2-0.3
			c-0.1-0.1-0.3-0.1-0.5-0.1h-0.4V5.4L294.8,5.4z"/>
		<path class="st0" d="M295.3,9.9C293,9.9,291,8,291,5.7s1.9-4.3,4.3-4.3c2.3,0,4.3,1.9,4.3,4.3S297.6,9.9,295.3,9.9z M295.3,2.3
			c-1.9,0-3.4,1.5-3.4,3.4s1.5,3.4,3.4,3.4c1.9,0,3.4-1.5,3.4-3.4S297.2,2.3,295.3,2.3z"/>
	</g>
</g>
</svg>
